<?xml version="1.0" standalone="no"?>
<!DOCTYPE svg PUBLIC "-//W3C//DTD SVG 20010904//EN"
 "http://www.w3.org/TR/2001/REC-SVG-20010904/DTD/svg10.dtd">
<svg version="1.0" xmlns="http://www.w3.org/2000/svg"
 width="256.000000pt" height="256.000000pt" viewBox="0 0 256.000000 256.000000"
 preserveAspectRatio="xMidYMid meet">
<metadata>
Created by potrace 1.11, written by Peter Selinger 2001-2013
</metadata>
<g transform="translate(0.000000,256.000000) scale(0.100000,-0.100000)"
fill="#000000" stroke="none">
<path d="M897 2424 c-1 -1 -33 -5 -72 -9 -38 -3 -83 -8 -100 -10 -16 -2 -57
-7 -90 -10 -204 -19 -227 -23 -238 -34 -9 -9 147 -406 168 -429 10 -11 15 -11
27 0 81 74 84 76 40 19 -23 -29 -42 -61 -42 -71 0 -29 23 -41 61 -30 35 10 33
7 -14 -25 -12 -8 -4 -26 48 -107 l62 -97 47 46 c25 26 46 50 46 54 0 3 -25 37
-55 75 -30 38 -50 71 -44 73 6 2 34 -20 63 -48 28 -28 56 -51 61 -51 6 0 22
22 36 50 24 45 25 52 12 77 -8 15 -26 38 -41 50 -15 12 -23 22 -18 23 6 0 23
-12 39 -27 l29 -28 29 35 c16 19 29 37 29 41 0 4 10 9 23 11 22 3 39 30 102
157 15 29 24 62 22 72 -4 13 0 19 12 19 28 0 45 53 31 90 -2 3 -3 23 -4 45
l-1 40 -50 -2 c-84 -4 -98 -10 -93 -41 3 -15 7 -34 9 -42 3 -10 -3 -15 -16
-15 -15 0 -24 11 -35 50 -15 46 -18 50 -48 50 -18 1 -34 0 -35 -1z m-129 -384
c2 -11 -7 -15 -33 -15 -38 0 -45 8 -17 24 23 14 46 9 50 -9z"/>
<path d="M1305 2421 c-3 -6 -5 -28 -4 -49 2 -21 -1 -44 -5 -51 -12 -19 14 -71
35 -71 13 0 17 -6 14 -21 -5 -23 36 -122 54 -134 6 -3 11 -13 11 -22 0 -24 40
-73 60 -73 11 0 27 -15 41 -39 14 -26 28 -39 40 -38 11 1 19 6 19 11 0 5 3 7
6 3 4 -3 -3 -18 -14 -32 l-21 -26 27 -55 c14 -30 31 -54 36 -54 6 0 34 23 62
51 29 28 57 50 63 48 5 -2 -14 -34 -44 -72 -30 -37 -55 -70 -55 -75 1 -9 90
-106 94 -101 38 56 123 199 118 199 -4 0 -18 9 -32 20 l-25 19 37 -8 c70 -16
77 23 16 101 -42 53 -42 53 -8 24 19 -16 39 -35 43 -42 21 -36 31 -17 133 236
19 47 38 94 43 105 20 46 33 86 30 90 -4 3 -23 6 -139 20 -19 3 -66 7 -103 10
-38 4 -83 8 -100 10 -45 6 -177 18 -206 19 -20 1 -27 -7 -40 -48 -17 -53 -27
-61 -51 -46 -12 7 -12 12 -2 22 21 21 15 57 -10 62 -63 13 -117 16 -123 7z
m454 -378 c22 -18 21 -18 -23 -18 -39 0 -43 2 -35 18 5 9 16 17 23 17 8 0 24
-8 35 -17z m-149 -88 c-7 -9 -15 -13 -17 -11 -7 7 7 26 19 26 6 0 6 -6 -2 -15z"/>
<path d="M1150 2159 c-44 -67 -80 -128 -80 -135 0 -7 -3 -14 -8 -16 -15 -6
-92 -140 -92 -160 0 -11 -15 -34 -34 -52 -32 -29 -136 -172 -136 -187 0 -7 42
-25 75 -32 11 -3 -4 -5 -32 -6 -36 -1 -59 -7 -71 -19 -24 -24 -156 -230 -158
-248 -2 -12 27 -14 169 -14 95 0 182 3 195 7 23 6 24 14 7 56 -14 35 15 16 32
-20 l18 -38 407 -3 c224 -1 409 2 412 6 3 5 -31 66 -76 136 -62 98 -85 125
-97 120 -9 -3 -25 -8 -36 -10 -11 -2 -8 1 7 6 14 6 28 17 31 23 6 16 -144 245
-160 246 -7 1 -13 8 -13 16 0 27 -30 75 -46 75 -11 0 -14 5 -10 16 4 10 -10
42 -37 83 -24 36 -74 112 -110 169 -37 56 -69 102 -72 102 -2 0 -41 -55 -85
-121z m111 -208 c52 -110 122 -213 153 -227 18 -8 24 -13 14 -14 -10 0 -18 -2
-18 -6 0 -5 45 -89 80 -149 10 -16 20 -42 24 -57 l6 -27 -122 -3 c-75 -2 -122
-7 -121 -13 1 -5 5 -19 9 -30 7 -20 7 -20 -17 1 -43 37 -76 44 -199 44 -66 0
-120 2 -120 5 0 3 16 31 35 61 36 57 42 78 24 89 -7 5 -5 15 5 31 9 13 16 32
16 43 0 14 5 18 19 14 14 -3 25 7 44 42 38 68 32 89 -29 96 l-49 6 55 3 c30 1
60 2 66 1 14 -2 40 58 35 79 -1 8 -12 25 -23 37 l-20 21 56 0 56 -1 21 -46z
m232 -603 c3 -10 -8 -12 -42 -10 -66 5 -77 22 -14 22 31 0 53 -5 56 -12z"/>
<path d="M1140 1718 c-104 -175 -105 -177 -80 -186 15 -5 288 -8 348 -3 6 1
12 9 12 19 -1 20 -171 304 -185 309 -6 2 -48 -61 -95 -139z"/>
<path d="M983 1252 c-36 -2 -53 -7 -53 -17 0 -7 33 -66 74 -132 41 -65 112
-182 158 -260 57 -98 89 -143 101 -143 9 0 17 4 17 9 0 5 17 40 38 78 22 37
53 93 69 123 17 30 52 92 78 138 26 45 45 86 41 89 -3 3 -39 7 -80 7 -41 1
-72 4 -69 9 2 4 12 7 22 7 10 0 30 18 46 41 32 49 24 60 -43 57 -54 -2 -64
-10 -93 -81 -25 -63 -19 -80 24 -69 14 3 18 1 13 -6 -11 -18 -51 -14 -70 6
-11 13 -28 18 -53 16 -52 -3 -56 0 -102 70 -22 34 -46 62 -53 62 -7 -1 -37 -2
-65 -4z"/>
<path d="M1135 1247 c-38 -29 12 -112 61 -103 15 3 29 7 32 10 6 6 -57 106
-67 106 -4 0 -15 -6 -26 -13z"/>
<path d="M1482 1249 c-12 -4 -30 -26 -41 -48 l-20 -39 45 -4 c32 -2 49 1 58
12 19 22 46 80 38 81 -35 5 -62 4 -80 -2z"/>
<path d="M716 27 c3 -10 9 -15 12 -12 3 3 0 11 -7 18 -10 9 -11 8 -5 -6z"/>
<path d="M1436 27 c3 -10 9 -15 12 -12 3 3 0 11 -7 18 -10 9 -11 8 -5 -6z"/>
<path d="M2035 31 c-3 -5 -2 -12 3 -15 5 -3 9 1 9 9 0 17 -3 19 -12 6z"/>
<path d="M2113 25 c0 -8 4 -12 9 -9 5 3 6 10 3 15 -9 13 -12 11 -12 -6z"/>
<path d="M310 19 c0 -5 5 -7 10 -4 6 3 10 8 10 11 0 2 -4 4 -10 4 -5 0 -10 -5
-10 -11z"/>
</g>
</svg>
